<?xml version="1.0" encoding="UTF-8" standalone="no"?>
<svg width="246px" height="287px" viewBox="0 0 246 287" version="1.1" xmlns="http://www.w3.org/2000/svg" xmlns:xlink="http://www.w3.org/1999/xlink">
    <!-- Generator: Sketch 3.6 (26304) - http://www.bohemiancoding.com/sketch -->
    <title>logo</title>
    <desc>Created with Sketch.</desc>
    <defs></defs>
    <g id="Page-1" stroke="none" stroke-width="1" fill="none" fill-rule="evenodd">
        <g id="logo">
            <rect id="Rectangle-1" fill="#47A5B8" x="0" y="0" width="246" height="287" rx="8"></rect>
            <g id="Sign" transform="translate(31.000000, 21.000000)" stroke="#E0EAEC" stroke-width="15">
                <path d="M0,40.5606173 C22.089031,20.3677876 58.1006214,12.0217965 92.4671044,13.0905536 C103.455246,13.4322719 114.275208,14.7364598 124.41814,16.9236209 C158.162885,24.200136 184.413974,41.2497627 184.433594,65.1451478 C184.485451,128.30452 28.3828125,132.78718 0,96.7012429" id="Path-1"></path>
                <path d="M72.0698292,0.305484951 C72.0698292,0.305484951 67.3523256,151.786717 68.4296528,190.974354 C68.6249073,198.076709 72.0232638,202.400631 72.0698292,202.470982" id="Path-2"></path>
                <path d="M0,152.304984 C57.1953125,152.304984 147.53125,132.238578 168.921875,143.355765 C190.3125,154.472953 201.605469,226.863578 147.53125,226.863578 C93.4570312,226.863578 104.097656,176.236625 72.6992188,182.60967 C41.3007813,188.982715 0,238.023736 0,238.023736" id="Path-3"></path>
            </g>
        </g>
    </g>
</svg>